<svg xmlns="http://www.w3.org/2000/svg" version="1.1" xmlns:xlink="http://www.w3.org/1999/xlink" xmlns:svgjs="http://svgjs.dev/svgjs" width="100%" height="100%" viewBox="0 0 1000 600"><rect width="1000" height="600" x="0" y="0" fill="#0b1c2a"/><g><circle r="166.66666666666666" cx="371.60306803385413" cy="308.63758410626275" fill="#0b1c2a" transform="matrix(1.043852863638055,0,0,1.043852863638055,3.8995442001969423,-22.172209911392997)"/><path d="M123.92533160097544 380.7990558472785L123.92533160097544 380.7990558472785Q120.09334332270667 378.7766175893033 118.03542369178456 375.19299892166305Q116.01298543380939 371.6093802540229 116.01298543380939 364.1937733081138L116.01298543380939 364.1937733081138Q116.01298543380939 358.83608599312697 118.92245801545789 352.8397339650953Q121.86741197005333 346.84338193706367 125.84132574010982 341.09539951966053Q129.77975813721937 335.3474171022574 132.61826797297402 330.7348386191561L132.61826797297402 330.7348386191561Q142.3046827874867 314.910146284824 152.4168740773626 298.5532333562878Q162.49358399429155 282.19632042775174 170.4059301614576 266.76192319583595Q178.31827632862368 251.29204459097318 181.40515577500685 238.5187503300773L181.40515577500685 238.5187503300773Q181.90189499626388 238.27038071944875 183.427594032982 238.27038071944875L183.427594032982 238.27038071944875Q188.04017251608332 238.27038071944875 193.0075647286539 242.74103371076234Q198.01043831417147 247.2116867020759 198.50717753542853 251.5404142016017L198.50717753542853 251.5404142016017Q198.50717753542853 252.3210044064342 198.64910302721626 253.06611323831982Q198.75554714605704 253.84670344315234 198.75554714605704 254.8756632586134L198.75554714605704 254.8756632586134Q198.75554714605704 261.2623103890613 196.73310888808186 270.45198598231696Q194.6751892571598 279.6416615755726 192.2624558967683 289.86029698428933Q189.81424116342995 300.07893239300597 188.04017251608332 310.0491981910942L188.04017251608332 310.0491981910942Q186.26610386873665 320.51620321043936 184.5984793402308 330.23809939789896Q182.93085481172494 339.92451421241174 181.65352538563536 346.59501232643515L181.65352538563536 346.59501232643515Q187.79180290545477 338.6471847863221 195.70414907262082 328.0737356481361Q203.61649523978687 317.46480513700317 212.30943161178544 305.7204706915684Q221.00236798378404 293.94065487318665 229.41145337220712 282.58661553016805Q237.85602013357718 271.23257618714945 244.8813319770699 261.65260549147763Q251.90664382056264 252.0726347958057 256.3772968118762 245.68598766535777Q260.84794980318975 239.29934053490982 261.62854000802224 238.02201110882024L261.62854000802224 238.02201110882024Q266.2056371181766 238.02201110882024 271.06658521190644 240.57666996099942Q275.92753330563625 243.1313288131786 275.92753330563625 248.24064651753693L275.92753330563625 248.24064651753693Q275.92753330563625 249.23412496005108 275.1469431008037 252.0726347958057Q274.40183426891815 254.8756632586134 269.54088617518835 264.06533885186906L269.54088617518835 264.06533885186906Q261.62854000802224 280.4222517804051 252.9356036360237 297.2759039301983Q244.2426672640251 314.1295560799914 237.07542992874465 331.5154288239886L237.07542992874465 331.5154288239886Q234.0240318553084 339.1794053805261 230.83070829008446 347.23367703947986Q227.63738472486048 355.2524673254867 224.58598665142426 364.1937733081138L224.58598665142426 364.1937733081138Q222.77643663113065 369.5869419960477 222.3861415287144 373.6672998849449Q222.03132779924508 377.7476577738422 221.7474768156696 380.05394701539285L221.7474768156696 380.05394701539285Q216.38978950068275 377.2509185525852 213.97705614029132 372.2480449670676Q211.52884140695292 367.28065275449705 211.52884140695292 361.1423752346776L211.52884140695292 361.1423752346776Q211.52884140695292 352.981659456883 216.1414198900542 341.73406423270524Q220.7539983731555 330.4864690085276 227.49545923307278 318.103469850048Q234.27240146593695 305.7204706915684 241.04934369880112 293.8342107543458Q247.82628593166532 281.9479508171232 252.40338304181972 272.2260546296636Q257.01596152492095 262.53963981515096 257.01596152492095 256.64973190596004L257.01596152492095 256.64973190596004Q257.01596152492095 256.64973190596004 253.68071246790927 261.2623103890613Q250.3809447838445 265.83940749921567 245.27162707948617 272.7582752238676Q240.16230937512785 279.6416615755726 234.80462206014096 287.05726852148155Q229.41145337220712 294.4728754673906 225.22465136446903 300.07893239300597Q221.00236798378404 305.7204706915684 219.4766689470659 307.74290894954356L219.4766689470659 307.74290894954356Q208.4774433335167 322.82249245199 199.14584224847334 335.2054916104696Q189.81424116342995 347.5884907689492 184.98877444264707 356.8136477351518L184.98877444264707 356.8136477351518Q182.4341155904679 362.1713350501386 181.51159989384763 366.3936184308237Q180.6245655701743 370.58042043856176 180.6245655701743 373.9156694955735L180.6245655701743 373.9156694955735Q174.23791843972637 373.9156694955735 171.93162919817573 368.30961256995806Q169.66082132957203 362.66807427139577 169.66082132957203 355.53631830906215L169.66082132957203 355.53631830906215Q169.66082132957203 351.1721094365895 170.1575605508291 346.7014564452759Q170.65429977208615 342.2308034539624 171.18652036629015 338.93103576989756L171.18652036629015 338.93103576989756Q172.9605890136368 327.9318101563483 175.7636174764445 313.7392609775752Q178.60212731219914 299.58219317174894 181.51159989384763 285.63801360360424Q184.45655384844306 271.7293154084066 185.9822528851612 262.00741922094693L185.9822528851612 262.00741922094693Q183.7114450165575 268.6779173349703 179.59560575471326 276.6967076209771Q175.51524786581598 284.7509792799309 171.04459487450242 292.8052509388847Q166.57394188318887 300.85952259783846 162.49358399429155 307.49453933891493Q158.41322610539427 314.1295560799914 156.10693686384363 317.7131747476317L156.10693686384363 317.7131747476317Q151.2459887701138 324.88041208291213 146.03022694691467 334.1765317950086Q140.7789837507686 343.5081328800519 136.1664052676673 352.449438862679L136.1664052676673 352.449438862679Q131.34093854688444 361.63911445593465 127.86376399808499 369.4450165042599Q124.4220708222325 377.2509185525852 123.92533160097544 380.7990558472785ZM277.45323234235434 379.5217264211889L277.45323234235434 379.5217264211889Q274.65020387954667 379.5217264211889 273.1245048428285 377.9960273844707Q271.56332443316353 376.4703283477527 270.2859950070739 374.696259700406L270.2859950070739 374.696259700406Q269.78925578581686 373.1350792907409 269.78925578581686 372.6383400694839L269.78925578581686 372.6383400694839Q269.78925578581686 370.8642714221372 270.6762901094902 369.4450165042599Q271.56332443316353 368.0257615863826 272.343914637996 367.28065275449705L272.343914637996 367.28065275449705Q274.1179832853427 366.0033233284074 276.1759029162648 364.5840684105301Q278.2338225471869 363.20029486559974 280.5046304157906 362.1713350501386L280.5046304157906 362.1713350501386Q282.5625500467127 361.1423752346776 284.0882490834308 360.5037105216328Q285.61394812014896 359.865045808588 287.4234981404425 358.58771638249846L287.4234981404425 358.58771638249846Q288.1686069723281 358.0909771612414 288.7008275665321 358.72964187428613Q289.1975667877892 359.36830658733095 288.9491971771606 359.865045808588L288.9491971771606 359.865045808588Q287.4234981404425 362.1713350501386 286.39453832498145 366.89035765208075Q285.36557850952045 371.6093802540229 283.5915098621738 375.58329402407935Q281.78195984188017 379.5217264211889 277.45323234235434 379.5217264211889ZM299.16783258587736 379.02498719993184L299.16783258587736 379.02498719993184Q311.94112684677316 347.0917515476922 325.1047162100853 320.0194639891823Q338.26830557339747 292.94717643067247 350.01264001883226 271.4809457977781L350.01264001883226 271.4809457977781Q358.70557639083086 255.37240247987046 366.7243666768377 247.2116867020759Q374.77863833579147 239.01548955133435 381.41365507686794 236.21246108852668Q388.08415319089136 233.40943262571895 392.4128806904172 233.6578022363475L392.4128806904172 233.6578022363475Q386.27460317059774 240.29281897742393 378.36225700343164 252.1790789146465Q370.4499108362657 264.06533885186906 361.7569744642671 279.39329196494407Q353.06403809226856 294.72124507801914 344.37110172026996 311.71682271960003Q335.7136467212183 328.7124003611809 328.04967016468083 345.56605251097403L328.04967016468083 345.56605251097403Q330.3204780332845 342.4791730645909 334.79113102459803 336.73119064718776Q339.2617840159116 330.9832082297846 345.15169192510245 324.09982187807964Q351.04159983429327 317.21643552637465 357.28632147295355 310.93623251476754Q363.53104311161377 304.69151087610726 369.66932063143315 300.7175971060508Q375.8075981512526 296.77916470894127 380.6685462449824 296.77916470894127L380.6685462449824 296.77916470894127Q386.27460317059774 296.77916470894127 388.1905973097322 299.44026767996115Q390.10659144886654 302.1368520239281 390.10659144886654 305.7204706915684L390.10659144886654 305.7204706915684Q390.10659144886654 310.54593741235124 386.91326788364256 317.21643552637465Q383.7199443184186 323.8514522674511 379.14284720826424 330.7348386191561Q374.53026872516295 337.65370634380804 370.05961573384945 344.0403534742559Q365.58896274253584 350.42700060470384 363.0343038903567 355.2524673254867L363.0343038903567 355.2524673254867Q359.4506852227164 362.41970466076725 359.4506852227164 366.50006254966445L359.4506852227164 366.50006254966445Q359.4506852227164 370.33205082793324 362.78593427972817 370.33205082793324L362.78593427972817 370.33205082793324Q363.8148940951892 370.33205082793324 365.44703725074805 369.8353116066762Q367.11466177925394 369.30309101247224 368.92421179954755 368.30961256995806L368.92421179954755 368.30961256995806Q374.53026872516295 365.47110273420344 380.1363256507784 360.1134154192166Q385.7778639493407 354.75572810422966 390.88718165369903 349.1496711786143L390.88718165369903 349.1496711786143Q393.4418405058782 346.3111613428597 395.74812974742883 343.7565024906804Q398.01893761603253 341.20184363850126 400.07685724695466 338.3988151756936L400.07685724695466 338.3988151756936Q400.85744745178727 337.65370634380804 401.3541866730443 337.65370634380804L401.3541866730443 337.65370634380804Q402.87988570976245 337.65370634380804 402.87988570976245 339.92451421241174L402.87988570976245 339.92451421241174Q402.87988570976245 341.20184363850126 401.8509258943013 342.2308034539624L401.8509258943013 342.2308034539624Q396.4932385793144 348.86582019503885 390.6388120430705 355.7846879196908L390.6388120430705 355.7846879196908Q387.5519325966874 359.0844556037555 384.6069786420919 362.27777916897946Q381.6975060604434 365.47110273420344 378.8589962246888 368.30961256995806L378.8589962246888 368.30961256995806Q367.8952519840865 378.5282479786748 358.1733557966269 378.5282479786748L358.1733557966269 378.5282479786748Q353.06403809226856 378.5282479786748 350.651304731877 375.33492441345084Q348.2030899985387 372.14160084822686 348.2030899985387 367.28065275449705L348.2030899985387 367.28065275449705Q348.2030899985387 360.6456360134206 351.68026454733814 351.8107741496342Q355.12195772319063 343.0113936587949 360.23127542754895 335.0990474916289L360.23127542754895 335.0990474916289Q360.72801464880604 334.3184572867963 363.4245989927729 330.23809939789896Q366.0857019637929 326.15774150900177 369.42095102080464 320.65812870222715Q372.7562000778163 315.1585158954525 375.31085892999545 310.4394932935104Q377.8655177821746 305.7204706915684 377.8655177821746 303.66255106064625L377.8655177821746 303.66255106064625Q377.8655177821746 301.8884824132996 375.8075981512526 302.63359124518513Q373.74967852033046 303.41418145001774 368.6403608159721 307.74290894954356L368.6403608159721 307.74290894954356Q363.2826735009852 312.35548743264485 356.6476567599087 319.48724339497835Q350.01264001883226 326.6544807302588 342.8454026835518 334.9571219998411Q335.7136467212183 343.2597632694234 329.43344370961114 351.70433003079347Q323.188722070951 360.1134154192166 318.5761435878497 367.28065275449705L318.5761435878497 367.28065275449705L317.0504445511316 371.6093802540229Q315.52474551441344 375.6897381429201 312.579791559818 376.8606234501689Q309.6348376052226 377.9960273844707 306.19314442937 377.9960273844707Q302.75145125351753 377.9960273844707 299.16783258587736 379.02498719993184ZM413.0985211184791 379.5217264211889L413.0985211184791 379.5217264211889Q403.66047591459494 379.5217264211889 398.9414533126528 373.4189302743164Q394.18694933776385 367.28065275449705 394.18694933776385 357.80712617766596L394.18694933776385 357.80712617766596Q394.18694933776385 347.0917515476922 399.82848763632614 334.3184572867963L399.82848763632614 334.3184572867963Q404.93780534068446 322.82249245199 412.99207699963824 313.38444724810586Q421.0108672856452 303.91092067127477 430.48439386247617 298.16293825387163Q439.9224390663604 292.4149558364685 448.615375438359 292.4149558364685L448.615375438359 292.4149558364685Q459.0823804577042 292.4149558364685 463.9433285514341 298.80160296691645Q468.8042766451639 305.1882500973643 468.8042766451639 314.910146284824L468.8042766451639 314.910146284824Q468.8042766451639 325.37715130416916 463.44658933017695 337.3698553602326L463.44658933017695 337.3698553602326Q460.6080794944223 343.5081328800519 455.2503921794355 350.67537021533235Q449.89270486444866 357.80712617766596 443.00931851274356 364.47762429168927Q436.09045078809163 371.11264103276574 428.3200301127133 375.33492441345084Q420.51412806438816 379.5217264211889 413.0985211184791 379.5217264211889ZM417.9594692122089 374.41240871683056L417.9594692122089 374.41240871683056Q423.31715652719583 374.41240871683056 428.67484384218267 370.72234593034955Q434.06801253011645 367.0322831438684 438.8934792508994 361.63911445593465Q443.7544273446292 356.2814271409478 447.4799715040572 350.7818143341732Q451.1700342905382 345.3176829003455 452.94410293788485 341.4856946220767L452.94410293788485 341.4856946220767Q457.3083118103575 333.28949747133527 459.3307500683327 325.76744640658546Q461.3886696992548 318.2099139688887 461.3886696992548 312.60385704327336L461.3886696992548 312.60385704327336Q461.3886696992548 300.3273020036345 452.1989941059992 300.3273020036345L452.1989941059992 300.3273020036345Q446.5574558074369 300.3273020036345 440.31273416877673 304.7979549949481Q434.06801253011645 309.2686079862616 428.17810462092564 316.68421493217056Q422.2881967117347 324.09982187807964 417.9594692122089 333.28949747133527L417.9594692122089 333.28949747133527Q408.76979361895326 351.70433003079347 408.76979361895326 363.20029486559974L408.76979361895326 363.20029486559974Q408.76979361895326 372.3899704588554 414.6242201551971 373.9156694955735L414.6242201551971 373.9156694955735Q415.4048103600297 374.16403910620204 416.18540056486233 374.3059645979897Q416.9305093967479 374.41240871683056 417.9594692122089 374.41240871683056ZM499.95692209257106 383.63756568303313L499.95692209257106 383.63756568303313Q490.2705072780583 383.63756568303313 479.51965127513756 375.6897381429201L479.51965127513756 375.6897381429201Q474.9425541649832 372.3899704588554 471.60730510797157 366.50006254966445L471.60730510797157 366.50006254966445Q469.8332364606249 363.44866447622826 469.8332364606249 359.865045808588L469.8332364606249 359.865045808588Q469.8332364606249 355.7846879196908 472.6362649234326 355.7846879196908L472.6362649234326 355.7846879196908Q473.9135943495222 355.7846879196908 475.82958848865655 357.94905166945364Q477.745582627791 360.1134154192166 479.27128166450905 363.44866447622826L479.27128166450905 363.44866447622826Q481.5775709060597 368.5579821805866 484.13222975823885 372.2480449670676Q486.686888610418 375.97358912649554 492.29294553603347 375.97358912649554L492.29294553603347 375.97358912649554Q497.4022632403918 375.97358912649554 500.73751229740355 370.08368121730473Q504.03727998146826 364.1937733081138 505.9532741206027 355.0040977148583Q507.86926825973705 345.81442212160255 508.79178395635734 335.5957867128859Q509.67881828003067 325.37715130416916 509.9271878906592 316.82614042395835Q510.1755575012877 308.27512954374754 510.4239271119162 303.66255106064625L510.4239271119162 303.66255106064625Q498.4312230558529 318.2099139688887 487.82229254471997 331.1251337215723Q477.2133620335869 344.0403534742559 467.7753168297028 355.2524673254867L467.7753168297028 355.2524673254867Q466.74635701424177 356.5297967515763 466.0012481823561 356.5297967515763L466.0012481823561 356.5297967515763Q465.2206579775236 356.5297967515763 465.2206579775236 355.0040977148583L465.2206579775236 355.0040977148583Q465.2206579775236 352.2010692520505 466.49798740361325 350.42700060470384L466.49798740361325 350.42700060470384Q471.60730510797157 344.2887230848845 477.745582627791 336.73119064718776Q483.88386014761033 329.20913958243796 490.1285817862705 321.5451630259005Q496.3733034249308 313.8811864693629 501.37617701044826 307.88483444133124Q506.3435692230189 301.8884824132996 508.64985846456955 298.80160296691645L508.64985846456955 298.80160296691645Q508.64985846456955 291.13762641037886 512.2334771322098 286.66697341906536Q515.81709579985 282.19632042775174 520.9264135042084 280.17388216977656Q526.0357312085667 278.11596253885455 530.6128283187211 278.11596253885455L530.6128283187211 278.11596253885455Q534.9770371911939 278.11596253885455 536.999475449169 279.14492235431555L536.999475449169 279.14492235431555Q538.8090254694625 279.8900311862011 538.8090254694625 280.9189910016622L538.8090254694625 280.9189910016622Q538.8090254694625 281.6995812064947 536.2543666172834 282.44469003838026L536.2543666172834 282.44469003838026Q530.116089097464 284.00587044804536 527.5614302452848 288.973262660616Q525.0067713931056 293.94065487318665 524.3681066800608 300.9659667166793Q523.7294419670161 307.9912785601721 523.7294419670161 315.939106100285L523.7294419670161 315.939106100285Q523.7294419670161 327.6834405457198 522.700482151555 340.70510441724423Q521.671522336094 353.72676828876865 519.3652330945433 362.66807427139577L519.3652330945433 362.66807427139577Q518.8684938732863 364.47762429168927 517.981459549613 366.50006254966445Q517.0944252259396 368.5579821805866 516.313835021107 370.58042043856176L516.313835021107 370.58042043856176Q523.4810723563876 365.47110273420344 530.3644587080925 359.4747507061718Q537.2478450597974 353.47839867814 541.0798333380662 349.3980407892428L541.0798333380662 349.3980407892428Q543.918343173821 346.59501232643515 546.0827069235838 343.8984279824682Q548.2470706733468 341.20184363850126 550.5533599148973 338.3988151756936L550.5533599148973 338.3988151756936Q551.0500991361545 337.65370634380804 551.830689340987 337.65370634380804L551.830689340987 337.65370634380804Q553.3563883777051 337.65370634380804 553.3563883777051 339.6761446017832L553.3563883777051 339.6761446017832Q553.3563883777051 340.95347402787274 552.0790589516155 342.2308034539624L552.0790589516155 342.2308034539624Q546.7213716366286 348.61745058441034 541.221758829854 355.7846879196908Q535.7221460230794 362.9164438820243 529.0871292820029 368.30961256995806L529.0871292820029 368.30961256995806Q526.2841008191953 370.58042043856176 521.9198919467225 374.16403910620204Q517.5911644471967 377.7476577738422 513.2624369476708 380.05394701539285L513.2624369476708 380.05394701539285Q506.0951996123904 383.63756568303313 499.95692209257106 383.63756568303313ZM573.7936591951385 383.63756568303313L573.7936591951385 383.63756568303313Q564.0717630076789 383.63756568303313 553.3563883777051 375.6897381429201L553.3563883777051 375.6897381429201Q548.7438098946038 372.3899704588554 545.444042210539 366.50006254966445L545.444042210539 366.50006254966445Q543.6344921902454 363.44866447622826 543.6344921902454 359.865045808588L543.6344921902454 359.865045808588Q543.6344921902454 355.7846879196908 546.4730020260001 355.7846879196908L546.4730020260001 355.7846879196908Q547.7503314520897 355.7846879196908 549.666325591224 357.94905166945364Q551.5823197303584 360.1134154192166 553.1080187670766 363.44866447622826L553.1080187670766 363.44866447622826Q555.4143080086272 368.5579821805866 557.9689668608064 372.2480449670676Q560.5236257129856 375.97358912649554 566.1296826386009 375.97358912649554L566.1296826386009 375.97358912649554Q571.2390003429592 375.97358912649554 574.5742493999709 370.08368121730473Q577.8740170840358 364.1937733081138 579.7900112231702 355.0040977148583Q581.7060053623046 345.81442212160255 582.5930396859779 335.5957867128859Q583.5155553825982 325.37715130416916 583.7639249932266 316.82614042395835Q584.0122946038551 308.27512954374754 584.2606642144838 303.66255106064625L584.2606642144838 303.66255106064625Q572.2679601584204 318.2099139688887 561.6590296472874 331.1251337215723Q551.0500991361545 344.0403534742559 541.6120539322703 355.2524673254867L541.6120539322703 355.2524673254867Q540.5830941168092 356.5297967515763 539.8025039119767 356.5297967515763L539.8025039119767 356.5297967515763Q539.0573950800912 356.5297967515763 539.0573950800912 355.0040977148583L539.0573950800912 355.0040977148583Q539.0573950800912 352.2010692520505 540.3347245061807 350.42700060470384L540.3347245061807 350.42700060470384Q545.444042210539 344.2887230848845 551.5823197303584 336.73119064718776Q557.6851158772309 329.20913958243796 563.965318888838 321.5451630259005Q570.2100405274982 313.8811864693629 575.2129141130158 307.88483444133124Q580.1803063255863 301.8884824132996 582.4865955671371 298.80160296691645L582.4865955671371 298.80160296691645Q582.4865955671371 291.13762641037886 586.0702142347773 286.66697341906536Q589.6183515294706 282.19632042775174 594.7276692338289 280.17388216977656Q599.8369869381872 278.11596253885455 604.4495654212886 278.11596253885455L604.4495654212886 278.11596253885455Q608.7782929208145 278.11596253885455 610.8362125517364 279.14492235431555L610.8362125517364 279.14492235431555Q612.6102811990831 279.8900311862011 612.6102811990831 280.9189910016622L612.6102811990831 280.9189910016622Q612.6102811990831 281.6995812064947 610.055622346904 282.44469003838026L610.055622346904 282.44469003838026Q603.9528262000315 284.00587044804536 601.3981673478523 288.973262660616Q598.8435084956732 293.94065487318665 598.2048437826282 300.9659667166793Q597.5661790695837 307.9912785601721 597.5661790695837 315.939106100285L597.5661790695837 315.939106100285Q597.5661790695837 327.6834405457198 596.5372192541224 340.70510441724423Q595.5082594386614 353.72676828876865 593.2019701971108 362.66807427139577L593.2019701971108 362.66807427139577Q592.7052309758537 364.47762429168927 591.8181966521804 366.50006254966445Q590.8956809555601 368.5579821805866 590.1505721236746 370.58042043856176L590.1505721236746 370.58042043856176Q597.2823280860081 365.47110273420344 604.20119581066 359.4747507061718Q611.084582162365 353.47839867814 614.9165704406338 349.3980407892428L614.9165704406338 349.3980407892428Q617.7195989034415 346.59501232643515 619.9194440261513 343.8984279824682Q622.0838077759142 341.20184363850126 624.3900970174649 338.3988151756936L624.3900970174649 338.3988151756936Q624.8868362387219 337.65370634380804 625.6674264435545 337.65370634380804L625.6674264435545 337.65370634380804Q627.1931254802726 337.65370634380804 627.1931254802726 339.6761446017832L627.1931254802726 339.6761446017832Q627.1931254802726 340.95347402787274 625.915796054183 342.2308034539624L625.915796054183 342.2308034539624Q620.5581087391961 348.61745058441034 615.0584959324215 355.7846879196908Q609.558883125647 362.9164438820243 602.9238663845705 368.30961256995806L602.9238663845705 368.30961256995806Q600.1208379217628 370.58042043856176 595.7566290492899 374.16403910620204Q591.4279015497641 377.7476577738422 587.0636926772914 380.05394701539285L587.0636926772914 380.05394701539285Q579.9319367149579 383.63756568303313 573.7936591951385 383.63756568303313Z " fill="white" transform="matrix(1.043852863638055,0,0,1.043852863638055,3.8995442001969423,-22.172209911392997)"/><path d="M652.670306134077 383.63756297174973L652.670306134077 383.63756297174973Q635.5650449477156 383.63756297174973 628.5840516002903 373.00159928535834Q621.603058252865 362.32908589557724 621.603058252865 344.1638833109157L621.603058252865 344.1638833109157Q621.603058252865 331.5542356414826 625.9524729562347 316.6785063618905Q630.3018876596044 301.80277708229846 637.9407756680436 287.182895726434Q645.5431139730931 272.5995640739592 655.4115338883016 260.61126136215034Q665.2799538035101 248.6595083537311 676.4641630407464 241.42266708257822Q687.6483722779827 234.1858258114253 698.9787803287777 234.1858258114253L698.9787803287777 234.1858258114253Q716.3398894388667 234.1858258114253 723.9787774473059 245.62588297238923Q731.617665455745 257.0659401333532 731.617665455745 275.74283856547004L731.617665455745 275.74283856547004Q731.617665455745 291.02061458234834 726.7565549049201 306.26184089583705Q721.8588946507056 321.5396169127155 713.5986616846421 335.50160360756604Q705.3018790151891 349.4270405990269 695.0314123626943 360.2092030989769Q684.7609457101995 371.0279153023166 673.7229352865218 377.3144642853383Q662.6483751594545 383.63756297174973 652.670306134077 383.63756297174973ZM650.5504233374767 377.0586163616107L650.5504233374767 377.0586163616107Q660.8208899899714 377.0586163616107 670.6893099051799 369.0542313192749Q680.5577298203884 361.0132965735495 689.2565592271278 348.00160216683014Q697.9188389304775 334.9533580567211 704.6439843541751 319.56593292967375Q711.3325800744831 304.1785078026264 715.1702989303976 289.30277852303436Q718.9714680829223 274.4270492434422 718.9714680829223 262.84079326891964L718.9714680829223 262.84079326891964Q718.9714680829223 253.63026801472503 715.9378427015804 248.36711072661382Q712.9407670236283 243.10395343850263 706.0694227863719 243.10395343850263L706.0694227863719 243.10395343850263Q695.0314123626943 243.10395343850263 684.6512966000305 250.6331923367728Q674.234631133977 258.12588153165336 665.1703046933411 270.2238333536312Q656.0694285493155 282.3217851756091 649.2346340154488 296.6858186077459Q642.3998394815821 311.013302336493 638.5986703290575 325.2311369550712Q634.760951473143 339.4489715736494 634.760951473143 350.4869819973271L634.760951473143 350.4869819973271Q634.760951473143 362.0732379718496 638.1966235917712 369.56592716673015Q641.5957460070097 377.0586163616107 650.5504233374767 377.0586163616107ZM745.543102447206 383.3817150480221L745.543102447206 383.3817150480221Q737.3925185913116 383.3817150480221 730.9597707947312 378.2647565734695Q724.4904732947612 373.11124839552735 724.4904732947612 361.817390048122L724.4904732947612 361.817390048122Q724.4904732947612 354.9460458108657 729.2419347354171 349.02499386174065Q733.993396176073 343.1039419126155 741.339886557395 343.1039419126155L741.339886557395 343.1039419126155Q743.9714652014505 343.1039419126155 746.6030438455061 343.9080353871881L746.6030438455061 343.9080353871881Q742.3998279556951 345.2238247092158 739.5124013879118 351.4007245820686Q736.6249748201286 357.5776244549213 736.6249748201286 363.9007231413327L736.6249748201286 363.9007231413327Q736.6249748201286 368.9080325057163 738.854506726898 372.5995525480721Q741.0840386336673 376.2910725904278 746.3471959217785 376.2910725904278L746.3471959217785 376.2910725904278Q754.7536277014007 376.2910725904278 763.0504103708537 371.13756441248563Q771.3471930403067 366.02060593793306 778.5840343114596 358.2355191159352Q785.8208755826125 350.4869819973271 791.0840328707237 342.84809398888785L791.0840328707237 342.84809398888785Q797.1512836334075 333.3817208109657 802.7799379554153 323.11125415847084Q808.4451419808128 312.8407875059761 812.1366620231686 303.1185664043262L812.1366620231686 303.1185664043262Q808.9933875316577 307.3217822941373 803.5840314299879 313.1331851330933Q798.1746753283181 318.9080382686599 790.6819861334375 323.36710208219847Q783.189296938557 327.8627155991268 772.9188302860622 327.8627155991268L772.9188302860622 327.8627155991268Q759.5050891420566 327.8627155991268 753.4378383793728 318.65219034493225Q747.4071373200787 309.4416650907376 747.4071373200787 296.7954677179148L747.4071373200787 296.7954677179148Q747.4071373200787 286.0133052179648 751.7565520234484 274.82909598072854Q756.0694170234284 263.6448867434922 763.9641529555952 254.28816267573893Q771.858888887762 244.96798831137534 782.2755543538154 239.30278428597785Q792.6556701164792 233.6375802605804 804.7536219384571 233.6375802605804L804.7536219384571 233.6375802605804Q822.1512807519358 233.6375802605804 828.3281806247885 244.0542457266338Q834.5050804976412 254.43436148929757 834.5050804976412 272.0513185231142L834.5050804976412 272.0513185231142Q834.5050804976412 282.5776330993367 830.9597592688441 295.47967839588705Q827.414438040047 308.3817236924374 820.835491429908 321.6858157262741Q814.2565448197689 334.9533580567211 805.0460195655743 347.05130987869893L805.0460195655743 347.05130987869893Q793.4597635910517 362.58493381930487 778.1819875741734 373.00159928535834Q762.9407612606848 383.3817150480221 745.543102447206 383.3817150480221ZM774.4904675318177 320.47967551441525L774.4904675318177 320.47967551441525Q783.189296938557 320.47967551441525 790.8281849469962 315.7647637771489Q798.4670729554354 311.013302336493 804.2419260910018 303.9226598788988L804.2419260910018 303.9226598788988Q812.1366620231686 293.90804115013157 816.7419246502659 281.5542414044262Q821.3471872773632 269.163891955331 821.3471872773632 258.6375773791086L821.3471872773632 258.6375773791086Q821.3471872773632 249.97529767575892 817.801866048566 244.31009365036144Q814.2565448197689 238.64488962496395 806.3618088876021 238.64488962496395L806.3618088876021 238.64488962496395Q796.8588860062902 238.64488962496395 788.9641500741235 245.07763742154432Q781.0694141419566 251.54693492151435 775.1483621928315 261.52500394689184Q769.2273102437065 271.53962267565896 765.9378369386369 282.4679839891677Q762.6483636335674 293.3963453026763 762.6483636335674 302.3144729297537L762.6483636335674 302.3144729297537Q762.6483636335674 310.2092088619205 765.5723399047403 315.3627170398627Q768.4597664725235 320.47967551441525 774.4904675318177 320.47967551441525Z " fill="white" transform="matrix(1.043852863638055,0,0,1.043852863638055,3.8995442001969423,-22.172209911392997)"/></g></svg>